<?xml version="1.0" encoding="UTF-8" standalone="no"?>
<!-- Created with Inkscape (http://www.inkscape.org/) -->
<svg xmlns:dc="http://purl.org/dc/elements/1.1/" xmlns:cc="http://creativecommons.org/ns#" xmlns:rdf="http://www.w3.org/1999/02/22-rdf-syntax-ns#" xmlns:svg="http://www.w3.org/2000/svg" xmlns="http://www.w3.org/2000/svg" xmlns:xlink="http://www.w3.org/1999/xlink" version="1.1" width="48" height="48" id="GTKWave">
  <defs id="defs3">
    <radialGradient cx="605.71429" cy="486.64789" r="117.14286" fx="605.71429" fy="486.64789" id="radialGradient6719" xlink:href="#linearGradient5060" gradientUnits="userSpaceOnUse" gradientTransform="matrix(-2.77439,0,0,1.96971,112.762,-872.885)"/>
    <linearGradient id="linearGradient5060">
      <stop id="stop5062" style="stop-color:#000000;stop-opacity:1" offset="0"/>
      <stop id="stop5064" style="stop-color:#000000;stop-opacity:0" offset="1"/>
    </linearGradient>
    <radialGradient cx="605.71429" cy="486.64789" r="117.14286" fx="605.71429" fy="486.64789" id="radialGradient6717" xlink:href="#linearGradient5060" gradientUnits="userSpaceOnUse" gradientTransform="matrix(2.77439,0,0,1.96971,-1891.63,-872.885)"/>
    <linearGradient id="linearGradient5048">
      <stop id="stop5050" style="stop-color:#000000;stop-opacity:0" offset="0"/>
      <stop id="stop5056" style="stop-color:#000000;stop-opacity:1" offset="0.5"/>
      <stop id="stop5052" style="stop-color:#000000;stop-opacity:0" offset="1"/>
    </linearGradient>
    <linearGradient x1="302.85715" y1="366.64789" x2="302.85715" y2="609.50507" id="linearGradient6715" xlink:href="#linearGradient5048" gradientUnits="userSpaceOnUse" gradientTransform="matrix(2.77439,0,0,1.96971,-1892.18,-872.885)"/>
    <linearGradient id="linearGradient15662">
      <stop id="stop15664" style="stop-color:#ffffff;stop-opacity:1" offset="0"/>
      <stop id="stop15666" style="stop-color:#f8f8f8;stop-opacity:1" offset="1"/>
    </linearGradient>
    <radialGradient cx="20.892099" cy="64.567902" r="5.257" fx="20.892099" fy="64.567902" id="aigrd3" gradientUnits="userSpaceOnUse">
      <stop id="stop15573" style="stop-color:#f0f0f0;stop-opacity:1" offset="0"/>
      <stop id="stop15575" style="stop-color:#9a9a9a;stop-opacity:1" offset="1"/>
    </radialGradient>
    <radialGradient cx="20.892099" cy="114.5684" r="5.256" fx="20.892099" fy="114.5684" id="aigrd2" gradientUnits="userSpaceOnUse">
      <stop id="stop15566" style="stop-color:#f0f0f0;stop-opacity:1" offset="0"/>
      <stop id="stop15568" style="stop-color:#9a9a9a;stop-opacity:1" offset="1"/>
    </radialGradient>
    <linearGradient id="linearGradient269">
      <stop id="stop270" style="stop-color:#a3a3a3;stop-opacity:1" offset="0"/>
      <stop id="stop271" style="stop-color:#4c4c4c;stop-opacity:1" offset="1"/>
    </linearGradient>
    <linearGradient id="linearGradient259">
      <stop id="stop260" style="stop-color:#fafafa;stop-opacity:1" offset="0"/>
      <stop id="stop261" style="stop-color:#bbbbbb;stop-opacity:1" offset="1"/>
    </linearGradient>
    <radialGradient cx="8.824419" cy="3.7561285" r="37.751713" fx="8.824419" fy="3.7561285" id="radialGradient15656" xlink:href="#linearGradient269" gradientUnits="userSpaceOnUse" gradientTransform="matrix(0.968273,0,0,1.03277,3.35355,0.646447)"/>
    <radialGradient cx="33.966679" cy="35.736916" r="86.70845" fx="33.966679" fy="35.736916" id="radialGradient15658" xlink:href="#linearGradient259" gradientUnits="userSpaceOnUse" gradientTransform="scale(0.960493,1.04113)"/>
    <radialGradient cx="8.1435566" cy="7.2678967" r="38.158695" fx="8.1435566" fy="7.2678967" id="radialGradient15668" xlink:href="#linearGradient15662" gradientUnits="userSpaceOnUse" gradientTransform="matrix(0.968273,0,0,1.03277,3.35355,0.646447)"/>
    <radialGradient cx="20.892099" cy="114.5684" r="5.256" fx="20.892099" fy="114.5684" id="radialGradient2283" xlink:href="#aigrd2" gradientUnits="userSpaceOnUse" gradientTransform="matrix(0.229703,0,0,0.229703,4.61353,3.97981)"/>
    <radialGradient cx="20.892099" cy="64.567902" r="5.257" fx="20.892099" fy="64.567902" id="radialGradient2285" xlink:href="#aigrd3" gradientUnits="userSpaceOnUse" gradientTransform="matrix(0.229703,0,0,0.229703,4.61353,3.97981)"/>
  </defs>
  <metadata id="metadata4">
    <rdf:RDF>
      <cc:Work rdf:about="">
        <dc:format>image/svg+xml</dc:format>
        <dc:type rdf:resource="http://purl.org/dc/dcmitype/StillImage"/>
        <dc:title/>
        <dc:subject>
          <rdf:Bag>
            <rdf:li>text</rdf:li>
            <rdf:li>plaintext</rdf:li>
            <rdf:li>regular</rdf:li>
            <rdf:li>document</rdf:li>
          </rdf:Bag>
        </dc:subject>
        <cc:license rdf:resource="http://creativecommons.org/licenses/by-sa/2.0/"/>
        <dc:creator>
          <cc:Agent>
            <dc:title>Jakub Steiner</dc:title>
          </cc:Agent>
        </dc:creator>
        <dc:source>http://jimmac.musichall.cz</dc:source>
      </cc:Work>
      <cc:License rdf:about="http://creativecommons.org/licenses/by/2.0/">
        <cc:permits rdf:resource="http://web.resource.org/cc/Reproduction"/>
        <cc:permits rdf:resource="http://web.resource.org/cc/Distribution"/>
        <cc:requires rdf:resource="http://web.resource.org/cc/Notice"/>
        <cc:requires rdf:resource="http://web.resource.org/cc/Attribution"/>
        <cc:permits rdf:resource="http://web.resource.org/cc/DerivativeWorks"/>
        <cc:requires rdf:resource="http://web.resource.org/cc/ShareAlike"/>
      </cc:License>
    </rdf:RDF>
  </metadata>
  <g id="layer6">
    <g transform="matrix(0.0210546,0,0,0.0208676,42.8517,41.1536)" id="g6707" style="display:inline">
      <rect width="1339.6335" height="478.35718" x="-1559.2523" y="-150.69685" id="rect6709" style="opacity:0.40206197;color:#000000;fill:url(#linearGradient6715) #000000;fill-opacity:1;fill-rule:nonzero;stroke:none;stroke-width:1;marker:none;visibility:visible;display:inline;overflow:visible"/>
      <path d="m -219.61876,-150.68038 c 0,0 0,478.33079 0,478.33079 142.874166,0.90045 345.40022,-107.16966 345.40014,-239.196175 0,-132.026537 -159.436816,-239.134595 -345.40014,-239.134615 z" id="path6711" style="opacity:0.40206197;color:#000000;fill:url(#radialGradient6717) #000000;fill-opacity:1;fill-rule:nonzero;stroke:none;stroke-width:1;marker:none;visibility:visible;display:inline;overflow:visible"/>
      <path d="m -1559.2523,-150.68038 c 0,0 0,478.33079 0,478.33079 -142.8742,0.90045 -345.4002,-107.16966 -345.4002,-239.196175 0,-132.026537 159.4368,-239.134595 345.4002,-239.134615 z" id="path6713" style="opacity:0.40206197;color:#000000;fill:url(#radialGradient6719) #000000;fill-opacity:1;fill-rule:nonzero;stroke:none;stroke-width:1;marker:none;visibility:visible;display:inline;overflow:visible"/>
    </g>
  </g>
  <g id="layer1" style="display:inline">
    <rect width="34.875" height="40.920494" ry="1.1490486" x="6.6035528" y="3.6464462" id="rect15391" style="color:#000000;fill:url(#radialGradient15658) #000000;fill-opacity:1;fill-rule:nonzero;stroke:url(#radialGradient15656) #000000;stroke-width:1;stroke-linecap:round;stroke-linejoin:round;stroke-miterlimit:4;stroke-opacity:1;stroke-dashoffset:0;marker:none;visibility:visible;display:block;overflow:visible"/>
    <rect width="32.775887" height="38.946384" rx="0.14904857" ry="0.14904857" x="7.6660538" y="4.5839462" id="rect15660" style="color:#000000;fill:none;stroke:url(#radialGradient15668) #000000;stroke-width:1;stroke-linecap:round;stroke-linejoin:round;stroke-miterlimit:4;stroke-opacity:1;stroke-dashoffset:0;marker:none;visibility:visible;display:block;overflow:visible"/>
    <g transform="translate(0.646447,-0.0379893)" id="g2270">
      <g transform="matrix(0.229703,0,0,0.229703,4.96708,4.24497)" id="g1440" style="fill:#ffffff;fill-opacity:1;fill-rule:nonzero;stroke:#000000;stroke-miterlimit:4">
        <radialGradient cx="20.892099" cy="114.5684" r="5.256" fx="20.892099" fy="114.5684" id="radialGradient1442" gradientUnits="userSpaceOnUse">
          <stop id="stop1444" style="stop-color:#f0f0f0;stop-opacity:1" offset="0"/>
          <stop id="stop1446" style="stop-color:#474747;stop-opacity:1" offset="1"/>
        </radialGradient>
        <path d="m 23.428,113.07 c 0,1.973 -1.6,3.572 -3.573,3.572 -1.974,0 -3.573,-1.6 -3.573,-3.572 0,-1.974 1.6,-3.573 3.573,-3.573 1.973,0 3.573,1.6 3.573,3.573 z" id="path1448" style="stroke:none"/>
        <radialGradient cx="20.892099" cy="64.567902" r="5.257" fx="20.892099" fy="64.567902" id="radialGradient1450" gradientUnits="userSpaceOnUse">
          <stop id="stop1452" style="stop-color:#f0f0f0;stop-opacity:1" offset="0"/>
          <stop id="stop1454" style="stop-color:#474747;stop-opacity:1" offset="1"/>
        </radialGradient>
        <path d="m 23.428,63.07 c 0,1.973 -1.6,3.573 -3.573,3.573 -1.974,0 -3.573,-1.6 -3.573,-3.573 0,-1.974 1.6,-3.573 3.573,-3.573 1.973,0 3.573,1.6 3.573,3.573 z" id="path1456" style="stroke:none"/>
      </g>
      <path d="m 9.9950109,29.952326 c 0,0.453204 -0.3675248,0.820499 -0.8207288,0.820499 -0.4534338,0 -0.8207289,-0.367524 -0.8207289,-0.820499 0,-0.453434 0.3675248,-0.820729 0.8207289,-0.820729 0.453204,0 0.8207288,0.367525 0.8207288,0.820729 z" id="path15570" style="fill:url(#radialGradient2283) #000000;fill-rule:nonzero;stroke:none"/>
      <path d="m 9.9950109,18.467176 c 0,0.453204 -0.3675248,0.820729 -0.8207288,0.820729 -0.4534338,0 -0.8207289,-0.367525 -0.8207289,-0.820729 0,-0.453434 0.3675248,-0.820729 0.8207289,-0.820729 0.453204,0 0.8207288,0.367525 0.8207288,0.820729 z" id="path15577" style="fill:url(#radialGradient2285) #000000;fill-rule:nonzero;stroke:none"/>
    </g>
    <path d="m 11.505723,5.4942766 0,37.9065924" id="path15672" style="fill:none;stroke:#000000;stroke-width:0.98855299;stroke-linecap:butt;stroke-linejoin:miter;stroke-miterlimit:4;stroke-opacity:0.0175439"/>
    <path d="m 12.5,5.0205154 0,38.0177126" id="path15674" style="fill:none;stroke:#ffffff;stroke-width:1;stroke-linecap:butt;stroke-linejoin:miter;stroke-miterlimit:4;stroke-opacity:0.20467799"/>
  </g>
  <g id="layer5" style="display:inline">
    <path d="m 15,23 0,15 22,0 0,-15 z" id="path3957" style="fill:#000000;fill-opacity:1;stroke:none"/>
    <path d="m 15.5,9.5 21,0" id="path5244" style="color:#000000;fill:none;stroke:#9b9b9b;stroke-width:1;stroke-linecap:round;stroke-linejoin:round;stroke-miterlimit:4;stroke-opacity:0.74509798;stroke-dasharray:none;stroke-dashoffset:0;marker:none;visibility:visible;display:inline;overflow:visible"/>
    <path d="m 15.5,11.5 21,0" id="path5246" style="color:#000000;fill:none;stroke:#9b9b9b;stroke-width:1;stroke-linecap:round;stroke-linejoin:round;stroke-miterlimit:4;stroke-opacity:0.74509798;stroke-dasharray:none;stroke-dashoffset:0;marker:none;visibility:visible;display:inline;overflow:visible"/>
    <path d="m 15.5,13.5 21,0" id="path5248" style="color:#000000;fill:none;stroke:#9b9b9b;stroke-width:1;stroke-linecap:round;stroke-linejoin:round;stroke-miterlimit:4;stroke-opacity:0.74509798;stroke-dasharray:none;stroke-dashoffset:0;marker:none;visibility:visible;display:inline;overflow:visible"/>
    <path d="m 15.5,17.5 12,0" id="path5250" style="color:#000000;fill:none;stroke:#9b9b9b;stroke-width:1;stroke-linecap:round;stroke-linejoin:round;stroke-miterlimit:4;stroke-opacity:0.74509798;stroke-dasharray:none;stroke-dashoffset:0;marker:none;visibility:visible;display:inline;overflow:visible"/>
    <path d="m 14,22 0,0.5 0,16 0,0.5 0.5,0 23,0 0.5,0 0,-0.5 0,-16 0,-0.5 -0.5,0 -23,0 z m 1,1 3,0 0,3 -3,0 z m 4,0 4,0 0,3 -4,0 z m 5,0 4,0 0,3 -4,0 z m 5,0 4,0 0,3 -4,0 z m 5,0 3,0 0,3 -3,0 z m -19,4 3,0 0,3 -3,0 z m 4,0 4,0 0,3 -4,0 z m 5,0 4,0 0,3 -4,0 z m 5,0 4,0 0,3 -4,0 z m 5,0 3,0 0,3 -3,0 z m -19,4 3,0 0,3 -3,0 z m 4,0 4,0 0,3 -4,0 z m 5,0 4,0 0,3 -4,0 z m 5,0 4,0 0,3 -4,0 z m 5,0 3,0 0,3 -3,0 z m -19,4 3,0 0,3 -3,0 z m 4,0 4,0 0,3 -4,0 z m 5,0 4,0 0,3 -4,0 z m 5,0 4,0 0,3 -4,0 z m 5,0 3,0 0,3 -3,0 z" id="path3941" style="font-size:medium;font-style:normal;font-variant:normal;font-weight:normal;font-stretch:normal;text-indent:0;text-align:start;text-decoration:none;line-height:normal;letter-spacing:normal;word-spacing:normal;text-transform:none;direction:ltr;block-progression:tb;writing-mode:lr-tb;text-anchor:start;baseline-shift:baseline;opacity:0.5;color:#000000;fill:#8ae234;fill-opacity:1;stroke:none;stroke-width:1;marker:none;visibility:visible;display:inline;overflow:visible;enable-background:accumulate;font-family:Sans;-inkscape-font-specification:Sans"/>
    <path d="m 16.5,36.5 2.5,0 4,-12 6,0 4,12 2.5,0" id="path3169" style="fill:none;stroke:#8ae234;stroke-width:1;stroke-linecap:round;stroke-linejoin:miter;stroke-miterlimit:4;stroke-opacity:1;stroke-dasharray:none;stroke-dashoffset:0"/>
    <path d="m 15.5,15.5 21,0" id="path3992" style="color:#000000;fill:none;stroke:#9b9b9b;stroke-width:1;stroke-linecap:round;stroke-linejoin:round;stroke-miterlimit:4;stroke-opacity:0.74509798;stroke-dasharray:none;stroke-dashoffset:0;marker:none;visibility:visible;display:inline;overflow:visible"/>
  </g>
</svg>