<?xml version="1.0" encoding="UTF-8"?>
<svg id="svg249" height="48.000000px" width="48.000000px" xmlns="http://www.w3.org/2000/svg" xmlns:xlink="http://www.w3.org/1999/xlink">
  <defs id="defs3">
    <linearGradient id="linearGradient4542">
      <stop style="stop-color:#000000;stop-opacity:1;" offset="0" id="stop4544"/>
      <stop style="stop-color:#000000;stop-opacity:0;" offset="1" id="stop4546"/>
    </linearGradient>
    <linearGradient id="linearGradient15662">
      <stop id="stop15664" offset="0" style="stop-color:#ffffff;stop-opacity:1.0000000;"/>
      <stop id="stop15666" offset="1" style="stop-color:#f8f8f8;stop-opacity:1.0000000;"/>
    </linearGradient>
    <radialGradient id="aigrd3" cx="20.8921" cy="64.5679" r="5.257" gradientUnits="userSpaceOnUse">
      <stop offset="0" style="stop-color:#F0F0F0" id="stop15573"/>
      <stop offset="1" style="stop-color:#9a9a9a;stop-opacity:1.0000000;" id="stop15575"/>
    </radialGradient>
    <radialGradient id="aigrd2" cx="20.8921" cy="114.5684" r="5.256" gradientUnits="userSpaceOnUse">
      <stop offset="0" style="stop-color:#F0F0F0" id="stop15566"/>
      <stop offset="1" style="stop-color:#9a9a9a;stop-opacity:1.0000000;" id="stop15568"/>
    </radialGradient>
    <linearGradient id="linearGradient269">
      <stop id="stop270" offset="0" style="stop-color:#a3a3a3;stop-opacity:1.0000000;"/>
      <stop id="stop271" offset="1" style="stop-color:#4c4c4c;stop-opacity:1.0000000;"/>
    </linearGradient>
    <linearGradient id="linearGradient259">
      <stop id="stop260" offset="0" style="stop-color:#fafafa;stop-opacity:1.0000000;"/>
      <stop id="stop261" offset="1" style="stop-color:#bbbbbb;stop-opacity:1.0000000;"/>
    </linearGradient>
    <radialGradient id="radialGradient15656" gradientUnits="userSpaceOnUse" gradientTransform="matrix(0.968272984028, 0, 0, 1.032767057419, 3.353553056717, 0.646447002888)" cx="8.8244190" cy="3.7561285" r="37.751713" xlink:href="#linearGradient269"/>
    <radialGradient id="radialGradient15658" gradientUnits="userSpaceOnUse" gradientTransform="matrix(0.960493028164, 0, 0, 1.041131973267, 0, 0)" cx="33.966679" cy="35.736916" r="86.708450" xlink:href="#linearGradient259"/>
    <radialGradient id="radialGradient15668" gradientUnits="userSpaceOnUse" gradientTransform="matrix(0.968272984028, 0, 0, 1.032767057419, 3.353553056717, 0.646447002888)" cx="8.1435566" cy="7.2678967" r="38.158695" xlink:href="#linearGradient15662"/>
    <radialGradient r="5.256" cy="114.5684" cx="20.8921" gradientTransform="matrix(0.229702979326, 0, 0, 0.229702979326, 5.259976387024, 3.941818714142)" gradientUnits="userSpaceOnUse" id="radialGradient2283" xlink:href="#aigrd2"/>
    <radialGradient r="5.257" cy="64.5679" cx="20.8921" gradientTransform="matrix(0.229702979326, 0, 0, 0.229702979326, 5.259976387024, 3.941818714142)" gradientUnits="userSpaceOnUse" id="radialGradient2285" xlink:href="#aigrd3"/>
    <radialGradient id="radialGradient4548" cx="24.306795" cy="42.07798" r="15.821514" gradientTransform="matrix(1.000000,0.000000,0.000000,0.284916,0.000000,30.08928)" gradientUnits="userSpaceOnUse" xlink:href="#linearGradient4542"/>
  </defs>
  <g>
    <g id="layer6">
      <path style="opacity:0.7836257;color:#000000;fill:url(#radialGradient4548);fill-opacity:1;fill-rule:evenodd;stroke:none;stroke-width:2;stroke-linecap:round;stroke-linejoin:round;marker:none;marker-start:none;marker-mid:none;marker-end:none;stroke-miterlimit:4;stroke-dasharray:none;stroke-dashoffset:0;stroke-opacity:1;visibility:visible;display:inline;overflow:visible" id="path3667" d="M 40.128309 42.07798 A 15.821514 4.5078058 0 1 1  8.485281,42.07798 A 15.821514 4.5078058 0 1 1  40.128309 42.07798 z" transform="translate(0.000000,0.707108)"/>
    </g>
    <rect style="color:#000000;fill:url(#radialGradient15658);fill-opacity:1.0000000;fill-rule:nonzero;stroke:url(#radialGradient15656);stroke-width:1.0000000;stroke-linecap:round;stroke-linejoin:round;stroke-miterlimit:4.0000000;stroke-dashoffset:0.0000000;stroke-opacity:1.0000000;marker:none;marker-start:none;marker-mid:none;marker-end:none;visibility:visible;display:block;overflow:visible" id="rect15391" width="34.875" height="40.92" x="6.604" y="3.646" ry="1.149"/>
    <rect style="color:#000000;fill:none;fill-opacity:1.0000000;fill-rule:nonzero;stroke:url(#radialGradient15668);stroke-width:1.0000000;stroke-linecap:round;stroke-linejoin:round;stroke-miterlimit:4.0000000;stroke-dashoffset:0.0000000;stroke-opacity:1.0000000;marker:none;marker-start:none;marker-mid:none;marker-end:none;visibility:visible;display:block;overflow:visible" id="rect15660" width="32.776" height="38.946" x="7.666" y="4.584" ry="0.149" rx="0.149"/>
    <path style="stroke: none; fill: rgb(255, 255, 255); fill-opacity: 1; fill-rule: nonzero; stroke-miterlimit: 4; display: inline;" d="M 10.995 30.179 C 10.995 30.633 10.627 31 10.174 31 C 9.721 31 9.354 30.632 9.354 30.179 C 9.354 29.726 9.721 29.359 10.174 29.359 C 10.627 29.359 10.995 29.726 10.995 30.179 Z" id="path1448"/>
    <path style="stroke: none; fill: rgb(255, 255, 255); fill-opacity: 1; fill-rule: nonzero; stroke-miterlimit: 4; display: inline;" d="M 10.995 18.694 C 10.995 19.148 10.627 19.515 10.174 19.515 C 9.721 19.515 9.354 19.148 9.354 18.694 C 9.354 18.241 9.721 17.874 10.174 17.874 C 10.627 17.874 10.995 18.241 10.995 18.694 Z" id="path1456"/>
    <path style="fill: url(#radialGradient2283); fill-rule: nonzero; stroke: none; stroke-miterlimit: 4; display: inline;" d="M 10.641 29.914 C 10.641 30.368 10.274 30.735 9.821 30.735 C 9.367 30.735 9 30.367 9 29.914 C 9 29.461 9.368 29.094 9.821 29.094 C 10.274 29.094 10.641 29.461 10.641 29.914 Z" id="path15570"/>
    <path style="fill: url(#radialGradient2285); fill-rule: nonzero; stroke: none; stroke-miterlimit: 4; display: inline;" d="M 10.641 18.429 C 10.641 18.882 10.274 19.25 9.821 19.25 C 9.367 19.25 9 18.882 9 18.429 C 9 17.976 9.368 17.608 9.821 17.608 C 10.274 17.608 10.641 17.976 10.641 18.429 Z" id="path15577"/>
    <path style="fill: none; fill-opacity: 0.75; fill-rule: evenodd; stroke: rgb(0, 0, 0); stroke-width: 0.988553; stroke-linecap: butt; stroke-linejoin: miter; stroke-miterlimit: 4; stroke-opacity: 0.0175439; display: inline;" d="M 11.506 5.494 L 11.506 43.401" id="path15672"/>
    <path style="fill: none; fill-opacity: 0.75; fill-rule: evenodd; stroke: rgb(255, 255, 255); stroke-width: 1; stroke-linecap: butt; stroke-linejoin: miter; stroke-miterlimit: 4; stroke-opacity: 0.204678; display: inline;" d="M 12.5 5.021 L 12.5 43.038" id="path15674"/>
    <g id="layer5" style="opacity:1;display:inline" transform="matrix(1, 0, 0, 1, 0.314004689455, 0.606000006199)">
      <g transform="matrix(0.909091,0,0,1,2.363628,0)" id="g2253">
        <rect style="color:black;fill:#9b9b9b;fill-opacity:0.54970757;fill-rule:nonzero;stroke:none;stroke-width:1;stroke-linecap:round;stroke-linejoin:round;marker:none;marker-start:none;marker-mid:none;marker-end:none;stroke-miterlimit:4;stroke-dashoffset:0;stroke-opacity:0.08187136;visibility:visible;display:block;overflow:visible" id="rect15686" width="22.000004" height="1" x="15.000002" y="9" rx="0.15156493" ry="0.065390877"/>
        <rect style="color:black;fill:#9b9b9b;fill-opacity:0.54970757;fill-rule:nonzero;stroke:none;stroke-width:1;stroke-linecap:round;stroke-linejoin:round;marker:none;marker-start:none;marker-mid:none;marker-end:none;stroke-miterlimit:4;stroke-dashoffset:0;stroke-opacity:0.08187136;visibility:visible;display:block;overflow:visible" id="rect15688" width="22.000004" height="1" x="15.000002" y="11" rx="0.15156493" ry="0.065390877"/>
        <rect style="color:black;fill:#9b9b9b;fill-opacity:0.54970757;fill-rule:nonzero;stroke:none;stroke-width:1;stroke-linecap:round;stroke-linejoin:round;marker:none;marker-start:none;marker-mid:none;marker-end:none;stroke-miterlimit:4;stroke-dashoffset:0;stroke-opacity:0.08187136;visibility:visible;display:block;overflow:visible" id="rect15690" width="22.000004" height="1" x="15.000002" y="13" rx="0.15156493" ry="0.065390877"/>
        <rect style="color:black;fill:#9b9b9b;fill-opacity:0.54970757;fill-rule:nonzero;stroke:none;stroke-width:1;stroke-linecap:round;stroke-linejoin:round;marker:none;marker-start:none;marker-mid:none;marker-end:none;stroke-miterlimit:4;stroke-dashoffset:0;stroke-opacity:0.08187136;visibility:visible;display:block;overflow:visible" id="rect15692" width="22.000004" height="1" x="15.000002" y="15" rx="0.15156493" ry="0.065390877"/>
        <rect style="color:black;fill:#9b9b9b;fill-opacity:0.54970757;fill-rule:nonzero;stroke:none;stroke-width:1;stroke-linecap:round;stroke-linejoin:round;marker:none;marker-start:none;marker-mid:none;marker-end:none;stroke-miterlimit:4;stroke-dashoffset:0;stroke-opacity:0.08187136;visibility:visible;display:block;overflow:visible" id="rect15694" width="22.000004" height="1" x="15.000002" y="17" rx="0.15156493" ry="0.065390877"/>
        <rect style="color:black;fill:#9b9b9b;fill-opacity:0.54970757;fill-rule:nonzero;stroke:none;stroke-width:1;stroke-linecap:round;stroke-linejoin:round;marker:none;marker-start:none;marker-mid:none;marker-end:none;stroke-miterlimit:4;stroke-dashoffset:0;stroke-opacity:0.08187136;visibility:visible;display:block;overflow:visible" id="rect15696" width="22.000004" height="1" x="15.000002" y="19" rx="0.15156493" ry="0.065390877"/>
        <rect style="color:black;fill:#9b9b9b;fill-opacity:0.54970757;fill-rule:nonzero;stroke:none;stroke-width:1;stroke-linecap:round;stroke-linejoin:round;marker:none;marker-start:none;marker-mid:none;marker-end:none;stroke-miterlimit:4;stroke-dashoffset:0;stroke-opacity:0.08187136;visibility:visible;display:block;overflow:visible" id="rect15698" width="22.000004" height="1" x="15.000002" y="21" rx="0.15156493" ry="0.065390877"/>
        <rect style="color:black;fill:#9b9b9b;fill-opacity:0.54970757;fill-rule:nonzero;stroke:none;stroke-width:1;stroke-linecap:round;stroke-linejoin:round;marker:none;marker-start:none;marker-mid:none;marker-end:none;stroke-miterlimit:4;stroke-dashoffset:0;stroke-opacity:0.08187136;visibility:visible;display:block;overflow:visible" id="rect15700" width="22.000004" height="1" x="15.000002" y="23" rx="0.15156493" ry="0.065390877"/>
        <rect style="color:black;fill:#9b9b9b;fill-opacity:0.54970757;fill-rule:nonzero;stroke:none;stroke-width:1;stroke-linecap:round;stroke-linejoin:round;marker:none;marker-start:none;marker-mid:none;marker-end:none;stroke-miterlimit:4;stroke-dashoffset:0;stroke-opacity:0.08187136;visibility:visible;display:block;overflow:visible" id="rect15732" width="9.9000053" height="1" x="14.999992" y="25" rx="0.068204239" ry="0.065390877"/>
        <rect style="color:black;fill:#9b9b9b;fill-opacity:0.54970757;fill-rule:nonzero;stroke:none;stroke-width:1;stroke-linecap:round;stroke-linejoin:round;marker:none;marker-start:none;marker-mid:none;marker-end:none;stroke-miterlimit:4;stroke-dashoffset:0;stroke-opacity:0.08187136;visibility:visible;display:block;overflow:visible" id="rect15736" width="22.000004" height="1" x="14.999992" y="29" rx="0.15156493" ry="0.065390877"/>
        <rect style="color:black;fill:#9b9b9b;fill-opacity:0.54970757;fill-rule:nonzero;stroke:none;stroke-width:1;stroke-linecap:round;stroke-linejoin:round;marker:none;marker-start:none;marker-mid:none;marker-end:none;stroke-miterlimit:4;stroke-dashoffset:0;stroke-opacity:0.08187136;visibility:visible;display:block;overflow:visible" id="rect15738" width="22.000004" height="1" x="14.999992" y="31" rx="0.15156493" ry="0.065390877"/>
        <rect style="color:black;fill:#9b9b9b;fill-opacity:0.54970757;fill-rule:nonzero;stroke:none;stroke-width:1;stroke-linecap:round;stroke-linejoin:round;marker:none;marker-start:none;marker-mid:none;marker-end:none;stroke-miterlimit:4;stroke-dashoffset:0;stroke-opacity:0.08187136;visibility:visible;display:block;overflow:visible" id="rect15740" width="22.000004" height="1" x="14.999992" y="33" rx="0.15156493" ry="0.065390877"/>
        <rect style="color:black;fill:#9b9b9b;fill-opacity:0.54970757;fill-rule:nonzero;stroke:none;stroke-width:1;stroke-linecap:round;stroke-linejoin:round;marker:none;marker-start:none;marker-mid:none;marker-end:none;stroke-miterlimit:4;stroke-dashoffset:0;stroke-opacity:0.08187136;visibility:visible;display:block;overflow:visible" id="rect15742" width="22.000004" height="1" x="14.999992" y="35" rx="0.15156493" ry="0.065390877"/>
        <rect style="color:black;fill:#9b9b9b;fill-opacity:0.54970757;fill-rule:nonzero;stroke:none;stroke-width:1;stroke-linecap:round;stroke-linejoin:round;marker:none;marker-start:none;marker-mid:none;marker-end:none;stroke-miterlimit:4;stroke-dashoffset:0;stroke-opacity:0.08187136;visibility:visible;display:block;overflow:visible" id="rect15744" width="15.400014" height="1" x="14.999992" y="37" rx="0.10609552" ry="0.065390877"/>
      </g>
    </g>
    <g id="layer2" style="display:inline" transform="matrix(1, 0, 0, 1, 0.314006656408, 0.606000006199)">
      <path style="font-size:33.32483673px;font-style:italic;font-weight:normal;text-align:center;text-anchor:middle;fill:#c00;fill-opacity:1;stroke:none;stroke-width:1px;stroke-linecap:butt;stroke-linejoin:miter;stroke-opacity:1;font-family:DejaVu Serif" d="M 19.55172,35.484249 C 19.21543,35.061181 19.106951,34.545905 19.226282,33.938419 C 19.345605,33.330938 19.654771,32.815662 20.15378,32.39259 C 20.65278,31.969524 21.211447,31.75799 21.829785,31.757986 C 22.426414,31.75799 22.892875,31.969524 23.229168,32.39259 C 23.576293,32.815662 23.690197,33.330938 23.570878,33.938419 C 23.46239,34.535057 23.153225,35.044909 22.64338,35.467977 C 22.13352,35.891046 21.580277,36.102581 20.983647,36.102581 C 20.36531,36.102581 19.888001,35.89647 19.55172,35.484249 M 19.81207,12.410705 C 21.070424,11.900876 22.242,11.521199 23.326799,11.271673 C 24.411583,11.022195 25.409592,10.897444 26.320828,10.897419 C 28.729054,10.897444 30.513537,11.477807 31.67428,12.638512 C 32.845839,13.799262 33.241788,15.366786 32.862129,17.341089 C 32.460738,19.35882 31.538665,21.007703 30.095907,22.287744 C 28.653119,23.567812 26.66795,24.484461 24.140394,25.037694 L 23.326799,29.170755 L 21.325356,29.170755 L 22.366758,23.833574 C 24.373615,23.367125 25.968259,22.586075 27.150694,21.490421 C 28.343953,20.394796 29.103308,19.000838 29.428759,17.308545 C 29.721639,15.822398 29.553496,14.650823 28.92433,13.793816 C 28.295138,12.936852 27.297129,12.50836 25.930302,12.508336 C 24.693629,12.50836 23.614261,12.866341 22.692195,13.582281 C 21.770115,14.287418 21.065,15.307122 20.576849,16.641397 L 18.998476,16.641397 L 19.81207,12.410705" id="text2931"/>
    </g>
  </g>
</svg>