<?xml version="1.0" encoding="UTF-8" standalone="no"?>
<svg xmlns:dc="http://purl.org/dc/elements/1.1/" xmlns:cc="http://creativecommons.org/ns#" xmlns:rdf="http://www.w3.org/1999/02/22-rdf-syntax-ns#" xmlns:svg="http://www.w3.org/2000/svg" xmlns="http://www.w3.org/2000/svg" xmlns:xlink="http://www.w3.org/1999/xlink" width="51.200001" height="51.200001" xml:space="preserve" id="svg16168" version="1.1" viewBox="0 0 48 48">
<defs id="defs16234"><linearGradient id="linearGradient2392"><stop id="stop2394" offset="0.0000000" style="stop-color:#715b26;stop-opacity:1.0000000;"/><stop id="stop2396" offset="1.0000000" style="stop-color:#312710;stop-opacity:1.0000000;"/></linearGradient><linearGradient id="linearGradient12129"><stop style="stop-color:#000000;stop-opacity:1;" offset="0" id="stop12131"/><stop style="stop-color:#000000;stop-opacity:0;" offset="1" id="stop12133"/></linearGradient>
		
		<linearGradient y2="36.032799" x2="31.081301" y1="3.7319" x1="12.4873" gradientUnits="userSpaceOnUse" id="aigrd1">
			<stop id="stop16177" style="stop-color:#D2D2D2;stroke-dasharray:none;stroke-miterlimit:4.0000000;stroke-width:1.2166667" offset="0"/>




			<stop id="stop16179" style="stop-color:#EDEDED;stroke-dasharray:none;stroke-miterlimit:4.0000000;stroke-width:1.2166667" offset="1"/>




		</linearGradient>




		
		<linearGradient y2="22.5769" x2="21.9168" y1="30.341299" x1="21.877001" gradientUnits="userSpaceOnUse" id="aigrd2">
			<stop id="stop16184" style="stop-color:#5e4f07;stop-opacity:1.0000000;" offset="0.0000000"/>




			<stop id="stop16186" style="stop-color:#348a31;stop-opacity:1.0000000;" offset="1.0000000"/>




		</linearGradient>




		
		
		
		
		
		<linearGradient y2="7.1090999" x2="21.9326" y1="24.627399" x1="21.9326" gradientUnits="userSpaceOnUse" id="aigrd3">
			<stop id="stop16199" style="stop-color:#D0D6E5;stroke-dasharray:none;stroke-miterlimit:4.0000000;stroke-width:1.2166667" offset="0"/>




			<stop id="stop16201" style="stop-color:#093A80;stroke-dasharray:none;stroke-miterlimit:4.0000000;stroke-width:1.2166667" offset="1"/>




		</linearGradient>




		
		
		
		
		
		
		
	<linearGradient gradientTransform="matrix(1.098989,0,0,1.106697,0.02774881,1.968146)" xlink:href="#aigrd3" id="linearGradient16270" gradientUnits="userSpaceOnUse" x1="21.9326" y1="24.627399" x2="21.9326" y2="7.1090999"/>



<linearGradient gradientTransform="matrix(1.110455,0,0,1.118244,-0.223961,1.61786)" xlink:href="#aigrd2" id="linearGradient16277" gradientUnits="userSpaceOnUse" x1="21.877001" y1="30.341299" x2="21.9168" y2="22.5769"/>



<linearGradient xlink:href="#aigrd1" id="linearGradient16280" gradientUnits="userSpaceOnUse" x1="12.4873" y1="3.7319" x2="31.081301" y2="36.032799" gradientTransform="matrix(1.211383,0,0,1.211383,-2.021434,0.172946)"/>



<radialGradient xlink:href="#linearGradient12129" id="radialGradient12135" cx="24.218407" cy="41.63604" fx="24.218407" fy="41.63604" r="22.097088" gradientTransform="matrix(1,0,0,0.184,0,33.97501)" gradientUnits="userSpaceOnUse"/><linearGradient gradientUnits="userSpaceOnUse" y2="27.352215" x2="27.238144" y1="20.227215" x1="27.308506" id="linearGradient2398" xlink:href="#linearGradient2392"/></defs>
	<ellipse style="color:#000000;display:block;visibility:visible;opacity:0.527638;fill:url(#radialGradient12135);fill-opacity:1;fill-rule:nonzero;stroke:none;stroke-width:1;stroke-linecap:butt;stroke-linejoin:miter;stroke-miterlimit:4;stroke-dasharray:none;stroke-dashoffset:0;stroke-opacity:0.61658;marker:none;marker-start:none;marker-mid:none;marker-end:none" id="path12127" transform="translate(0.176777,0.883885)" cx="24.218407" cy="41.63604" rx="22.097088" ry="4.0658641"/><path id="path16181" d="m 45.343674,39.887025 c 0,1.938215 -1.574798,3.513013 -3.513012,3.513013 H 6.337117 c -1.9382138,0 -3.5130129,-1.574798 -3.5130129,-3.513013 V 7.077834 c 0,-1.938214 1.5747991,-3.5130131 3.5130129,-3.5130131 h 35.493545 c 1.938214,0 3.513012,1.5747991 3.513012,3.5130131 z" style="fill:url(#linearGradient16280);fill-rule:nonzero;stroke:#646464;stroke-width:1;stroke-miterlimit:4;stroke-dasharray:none;stroke-opacity:1"/>
<path id="path16188" d="M 40.418728,34.717907 H 7.8823671 V 12.464833 H 40.418728 Z" style="fill:url(#linearGradient16277);fill-rule:nonzero;stroke:#646464;stroke-width:0.999999;stroke-miterlimit:4;stroke-dasharray:none;stroke-opacity:1"/>
<path id="path16203" d="M 8.3800672,12.924454 H 39.921067 V 26.315499 H 8.3800672 Z" style="fill:url(#linearGradient16270);fill-rule:nonzero;stroke:none;stroke-width:1.21667;stroke-miterlimit:4"/>
<path id="path16209" d="m 20.208301,18.838674 c 0,2.460219 -1.998886,4.584952 -4.553017,4.584952 -2.443083,0 -4.553018,-2.012905 -4.553018,-4.584952 0,-2.460218 1.998886,-4.584952 4.553018,-4.584952 2.443082,0 4.553017,2.012906 4.553017,4.584952 z" style="opacity:0.0499999;fill:#e8f52f;fill-rule:nonzero;stroke:none;stroke-width:1.44688;stroke-miterlimit:4"/><path id="path16211" d="m 19.764104,18.838674 c 0,2.236562 -1.776787,4.13764 -4.10882,4.13764 -2.220984,0 -4.108821,-1.789249 -4.108821,-4.13764 0,-2.236562 1.776787,-4.137639 4.108821,-4.137639 2.220984,0 4.10882,1.789249 4.10882,4.137639 z" style="opacity:0.2083;fill:#ecf751;fill-rule:nonzero;stroke:none;stroke-width:1.44688;stroke-miterlimit:4"/><path id="path16213" d="m 19.319907,18.838674 c 0,2.012906 -1.665738,3.690328 -3.664623,3.690328 -1.998886,0 -3.664624,-1.677422 -3.664624,-3.690328 0,-2.012905 1.665738,-3.690327 3.664624,-3.690327 1.998885,0 3.664623,1.677422 3.664623,3.690327 z" style="opacity:0.3667;fill:#f0f972;fill-rule:nonzero;stroke:none;stroke-width:1.44688;stroke-miterlimit:4"/><path id="path16215" d="m 18.87571,18.838674 c 0,1.78925 -1.443639,3.243015 -3.220426,3.243015 -1.776788,0 -3.220427,-1.453765 -3.220427,-3.243015 0,-1.789249 1.443639,-3.243014 3.220427,-3.243014 1.776787,0 3.220426,1.453765 3.220426,3.243014 z" style="opacity:0.525;fill:#f4fa95;fill-rule:nonzero;stroke:none;stroke-width:1.44688;stroke-miterlimit:4"/><path id="path16217" d="m 18.431514,18.838674 c 0,1.565594 -1.221542,2.795703 -2.77623,2.795703 -1.554689,0 -2.77623,-1.230109 -2.77623,-2.795703 0,-1.565593 1.221541,-2.795702 2.77623,-2.795702 1.554688,0 2.77623,1.230109 2.77623,2.795702 z" style="opacity:0.6833;fill:#f7fcb7;fill-rule:nonzero;stroke:none;stroke-width:1.44688;stroke-miterlimit:4"/><path id="path16219" d="m 17.987317,18.838674 c 0,1.341938 -1.110492,2.348391 -2.332033,2.348391 -1.221542,0 -2.332034,-1.118281 -2.332034,-2.348391 0,-1.230109 1.110492,-2.34839 2.332034,-2.34839 1.221541,0 2.332033,1.118281 2.332033,2.34839 z" style="opacity:0.8417;fill:#fbfddb;fill-rule:nonzero;stroke:none;stroke-width:1.44688;stroke-miterlimit:4"/><path id="path16221" d="m 17.54312,18.838674 c 0,1.118281 -0.888394,2.012906 -1.998886,2.012906 -1.110492,0 -1.998885,-0.894625 -1.998885,-2.012906 0,-1.118281 0.888393,-2.012905 1.998885,-2.012905 1.110492,0 1.998886,0.894624 1.998886,2.012905 z" style="fill:#ffffff;fill-rule:nonzero;stroke:none;stroke-width:1.44688;stroke-miterlimit:4"/>
<path style="fill:none;fill-rule:nonzero;stroke:#ffffff;stroke-width:1;stroke-miterlimit:4;stroke-dasharray:none;stroke-opacity:0.860104" d="m 44.480103,39.311531 c 0,1.859484 -0.9805,3.016761 -2.839983,3.016761 H 6.6160506 c -1.8594835,0 -2.9283726,-1.068888 -2.9283726,-2.928372 V 7.5801067 c 0,-1.8594838 1.5108308,-3.1935378 3.3703143,-3.1935378 H 41.198178 c 1.859483,0 3.281925,1.334054 3.281925,3.1935378 V 38.957978 Z" id="path11975"/><path style="fill:none;fill-rule:nonzero;stroke:#ffffff;stroke-width:0.999999;stroke-miterlimit:4;stroke-dasharray:none;stroke-opacity:0.61658" d="M 41.576909,35.510039 H 6.724187 V 11.507627 h 34.852722 z" id="path12125"/><path id="path2099" d="M 8.3085048,26.344855 H 39.863145 v -3.712311 l -3.093592,-2.12132 -2.563262,1.325825 -4.242641,-3.977475 -7.336232,6.982679 -6.275574,-0.441942 -5.3033,1.502602 -1.5909907,-0.883884 z" style="fill:url(#linearGradient2398);fill-opacity:1;fill-rule:evenodd;stroke:none;stroke-width:0.25pt;stroke-linecap:butt;stroke-linejoin:miter;stroke-opacity:1"/><path id="path2388" d="m 29.98762,17.859573 -1.438184,1.438184 0.814971,-0.383516 v 0.671152 l 1.054668,-0.767031 0.287636,0.287637 v -0.335576 l 0.671153,0.431455 z" style="fill:#ffffff;fill-opacity:1;fill-rule:evenodd;stroke:none;stroke-width:0.25pt;stroke-linecap:butt;stroke-linejoin:miter;stroke-opacity:1"/></svg>